<svg width="53" height="81" viewBox="0 0 53 81" fill="none" xmlns="http://www.w3.org/2000/svg">
<g filter="url(#filter0_d_353_227)">
<g filter="url(#filter1_d_353_227)">
<path d="M10.9312 14.8621H42.0691V66.7586L26.5001 53.1667L10.9312 66.7586V14.8621Z" fill="url(#paint0_linear_353_227)"/>
</g>
<circle cx="26.5" cy="24.5" r="21.5" fill="url(#paint1_linear_353_227)"/>
<circle cx="26.4998" cy="24.5" r="18.0345" stroke="white"/>
<path d="M32.3316 30.495V32.931H22.5636V30.495H26.0196V20.967C26.0196 20.759 26.0236 20.547 26.0316 20.331C26.0396 20.115 26.0516 19.895 26.0676 19.671L23.7876 21.567C23.6276 21.687 23.4716 21.763 23.3196 21.795C23.1676 21.827 23.0236 21.831 22.8876 21.807C22.7516 21.775 22.6316 21.727 22.5276 21.663C22.4236 21.591 22.3436 21.519 22.2876 21.447L21.2436 20.043L26.5956 15.507H29.3196V30.495H32.3316Z" fill="white"/>
</g>
<defs>
<filter id="filter0_d_353_227" x="0" y="0" width="53" height="73.7586" filterUnits="userSpaceOnUse" color-interpolation-filters="sRGB">
<feFlood flood-opacity="0" result="BackgroundImageFix"/>
<feColorMatrix in="SourceAlpha" type="matrix" values="0 0 0 0 0 0 0 0 0 0 0 0 0 0 0 0 0 0 127 0" result="hardAlpha"/>
<feOffset dy="2"/>
<feGaussianBlur stdDeviation="2.5"/>
<feComposite in2="hardAlpha" operator="out"/>
<feColorMatrix type="matrix" values="0 0 0 0 0 0 0 0 0 0 0 0 0 0 0 0 0 0 0.05 0"/>
<feBlend mode="normal" in2="BackgroundImageFix" result="effect1_dropShadow_353_227"/>
<feBlend mode="normal" in="SourceGraphic" in2="effect1_dropShadow_353_227" result="shape"/>
</filter>
<filter id="filter1_d_353_227" x="0.931152" y="8.86206" width="51.1377" height="71.8965" filterUnits="userSpaceOnUse" color-interpolation-filters="sRGB">
<feFlood flood-opacity="0" result="BackgroundImageFix"/>
<feColorMatrix in="SourceAlpha" type="matrix" values="0 0 0 0 0 0 0 0 0 0 0 0 0 0 0 0 0 0 127 0" result="hardAlpha"/>
<feOffset dy="4"/>
<feGaussianBlur stdDeviation="5"/>
<feComposite in2="hardAlpha" operator="out"/>
<feColorMatrix type="matrix" values="0 0 0 0 0 0 0 0 0 0 0 0 0 0 0 0 0 0 0.25 0"/>
<feBlend mode="normal" in2="BackgroundImageFix" result="effect1_dropShadow_353_227"/>
<feBlend mode="normal" in="SourceGraphic" in2="effect1_dropShadow_353_227" result="shape"/>
</filter>
<linearGradient id="paint0_linear_353_227" x1="24" y1="28.5" x2="34.1307" y2="61.3399" gradientUnits="userSpaceOnUse">
<stop stop-color="#FFED4D"/>
<stop offset="1" stop-color="#FFE500"/>
</linearGradient>
<linearGradient id="paint1_linear_353_227" x1="37.6207" y1="6.7069" x2="13.8966" y2="41.5517" gradientUnits="userSpaceOnUse">
<stop offset="0.30077" stop-color="#FFE500"/>
<stop offset="0.660724" stop-color="#FFF06B"/>
</linearGradient>
</defs>
</svg>
