<svg width="41" height="57" viewBox="0 0 41 57" fill="none" xmlns="http://www.w3.org/2000/svg">
<g filter="url(#filter0_d_353_233)">
<g filter="url(#filter1_d_353_233)">
<path d="M10.7915 9.58301H30.6969V42.7586L20.7442 34.0698L10.7915 42.7586V9.58301Z" fill="url(#paint0_linear_353_233)"/>
</g>
<circle cx="20.7442" cy="15.7442" r="13.7442" fill="url(#paint1_linear_353_233)"/>
<circle cx="20.7442" cy="15.7442" r="11.3484" stroke="white"/>
<path d="M24.3108 19.7675C24.5508 19.7675 24.7374 19.8342 24.8708 19.9675C25.0094 20.1008 25.0788 20.2768 25.0788 20.4955V21.7915H17.0308V21.0715C17.0308 20.9328 17.0601 20.7835 17.1188 20.6235C17.1774 20.4582 17.2761 20.3088 17.4148 20.1755L20.8548 16.7275C21.1481 16.4342 21.4068 16.1542 21.6308 15.8875C21.8548 15.6155 22.0414 15.3515 22.1908 15.0955C22.3401 14.8342 22.4521 14.5702 22.5268 14.3035C22.6014 14.0368 22.6388 13.7568 22.6388 13.4635C22.6388 12.9462 22.5054 12.5542 22.2388 12.2875C21.9721 12.0155 21.5961 11.8795 21.1108 11.8795C20.8974 11.8795 20.7001 11.9115 20.5188 11.9755C20.3428 12.0342 20.1828 12.1168 20.0388 12.2235C19.9001 12.3302 19.7801 12.4555 19.6788 12.5995C19.5774 12.7435 19.5028 12.9008 19.4548 13.0715C19.3588 13.3382 19.2281 13.5168 19.0628 13.6075C18.9028 13.6928 18.6734 13.7115 18.3748 13.6635L17.2068 13.4555C17.2921 12.8902 17.4521 12.3942 17.6868 11.9675C17.9214 11.5408 18.2148 11.1862 18.5668 10.9035C18.9188 10.6208 19.3214 10.4102 19.7748 10.2715C20.2281 10.1275 20.7161 10.0555 21.2388 10.0555C21.7881 10.0555 22.2868 10.1382 22.7348 10.3035C23.1881 10.4635 23.5748 10.6902 23.8948 10.9835C24.2148 11.2715 24.4628 11.6208 24.6388 12.0315C24.8148 12.4422 24.9028 12.8955 24.9028 13.3915C24.9028 13.8182 24.8414 14.2128 24.7188 14.5755C24.5961 14.9382 24.4281 15.2848 24.2148 15.6155C24.0068 15.9408 23.7641 16.2582 23.4868 16.5675C23.2094 16.8768 22.9161 17.1888 22.6068 17.5035L20.1428 20.0235C20.4148 19.9435 20.6841 19.8822 20.9508 19.8395C21.2174 19.7915 21.4681 19.7675 21.7028 19.7675H24.3108Z" fill="white"/>
</g>
<defs>
<filter id="filter0_d_353_233" x="5" y="0" width="31.4883" height="44.7586" filterUnits="userSpaceOnUse" color-interpolation-filters="sRGB">
<feFlood flood-opacity="0" result="BackgroundImageFix"/>
<feColorMatrix in="SourceAlpha" type="matrix" values="0 0 0 0 0 0 0 0 0 0 0 0 0 0 0 0 0 0 127 0" result="hardAlpha"/>
<feOffset/>
<feGaussianBlur stdDeviation="1"/>
<feComposite in2="hardAlpha" operator="out"/>
<feColorMatrix type="matrix" values="0 0 0 0 0 0 0 0 0 0 0 0 0 0 0 0 0 0 0.02 0"/>
<feBlend mode="normal" in2="BackgroundImageFix" result="effect1_dropShadow_353_233"/>
<feBlend mode="normal" in="SourceGraphic" in2="effect1_dropShadow_353_233" result="shape"/>
</filter>
<filter id="filter1_d_353_233" x="0.791504" y="3.58301" width="39.9053" height="53.1756" filterUnits="userSpaceOnUse" color-interpolation-filters="sRGB">
<feFlood flood-opacity="0" result="BackgroundImageFix"/>
<feColorMatrix in="SourceAlpha" type="matrix" values="0 0 0 0 0 0 0 0 0 0 0 0 0 0 0 0 0 0 127 0" result="hardAlpha"/>
<feOffset dy="4"/>
<feGaussianBlur stdDeviation="5"/>
<feComposite in2="hardAlpha" operator="out"/>
<feColorMatrix type="matrix" values="0 0 0 0 0 0 0 0 0 0 0 0 0 0 0 0 0 0 0.25 0"/>
<feBlend mode="normal" in2="BackgroundImageFix" result="effect1_dropShadow_353_233"/>
<feBlend mode="normal" in="SourceGraphic" in2="effect1_dropShadow_353_233" result="shape"/>
</filter>
<linearGradient id="paint0_linear_353_233" x1="14.811" y1="6.16473" x2="25.2892" y2="39.4034" gradientUnits="userSpaceOnUse">
<stop stop-color="#F8F8F8"/>
<stop offset="1" stop-color="#B1B1B1"/>
</linearGradient>
<linearGradient id="paint1_linear_353_233" x1="27.8532" y1="4.36969" x2="12.6872" y2="26.6447" gradientUnits="userSpaceOnUse">
<stop offset="0.30077" stop-color="#B1B1B1"/>
<stop offset="0.660724" stop-color="#D5D3D3"/>
</linearGradient>
</defs>
</svg>
