<svg width="41" height="58" viewBox="0 0 41 58" fill="none" xmlns="http://www.w3.org/2000/svg">
<g filter="url(#filter0_d_353_238)">
<g filter="url(#filter1_d_353_238)">
<path d="M10.7915 10.583H30.6969V43.7586L20.7442 35.0698L10.7915 43.7586V10.583Z" fill="url(#paint0_linear_353_238)"/>
</g>
<circle cx="20.7442" cy="16.7442" r="13.7442" fill="url(#paint1_linear_353_238)"/>
<circle cx="20.7444" cy="16.7442" r="11.3484" stroke="white"/>
<path d="M17.271 14.4555C17.3563 13.8902 17.5163 13.3942 17.751 12.9675C17.9857 12.5408 18.279 12.1862 18.631 11.9035C18.983 11.6208 19.383 11.4102 19.831 11.2715C20.2843 11.1275 20.7723 11.0555 21.295 11.0555C21.8497 11.0555 22.3457 11.1355 22.783 11.2955C23.2257 11.4502 23.599 11.6635 23.903 11.9355C24.207 12.2075 24.439 12.5248 24.599 12.8875C24.7643 13.2502 24.847 13.6395 24.847 14.0555C24.847 14.4235 24.807 14.7488 24.727 15.0315C24.6523 15.3088 24.5377 15.5515 24.383 15.7595C24.2337 15.9675 24.047 16.1435 23.823 16.2875C23.6043 16.4315 23.351 16.5515 23.063 16.6475C24.3963 17.0848 25.063 17.9728 25.063 19.3115C25.063 19.9035 24.9537 20.4262 24.735 20.8795C24.5163 21.3275 24.223 21.7035 23.855 22.0075C23.487 22.3115 23.0577 22.5408 22.567 22.6955C22.0817 22.8448 21.5723 22.9195 21.039 22.9195C20.4737 22.9195 19.975 22.8555 19.543 22.7275C19.111 22.5995 18.7297 22.4075 18.399 22.1515C18.0737 21.8955 17.7937 21.5755 17.559 21.1915C17.3243 20.8022 17.119 20.3488 16.943 19.8315L17.919 19.4315C18.175 19.3248 18.4123 19.2955 18.631 19.3435C18.855 19.3915 19.015 19.5088 19.111 19.6955C19.2177 19.8982 19.3297 20.0848 19.447 20.2555C19.5697 20.4262 19.7057 20.5755 19.855 20.7035C20.0043 20.8262 20.1723 20.9222 20.359 20.9915C20.551 21.0608 20.7697 21.0955 21.015 21.0955C21.3243 21.0955 21.5937 21.0448 21.823 20.9435C22.0523 20.8422 22.2443 20.7115 22.399 20.5515C22.5537 20.3862 22.6683 20.2022 22.743 19.9995C22.823 19.7915 22.863 19.5862 22.863 19.3835C22.863 19.1168 22.839 18.8768 22.791 18.6635C22.743 18.4448 22.631 18.2608 22.455 18.1115C22.2843 17.9568 22.0283 17.8395 21.687 17.7595C21.351 17.6742 20.8923 17.6315 20.311 17.6315V16.0795C20.7963 16.0795 21.1937 16.0395 21.503 15.9595C21.8123 15.8795 22.055 15.7675 22.231 15.6235C22.407 15.4795 22.527 15.3062 22.591 15.1035C22.6603 14.9008 22.695 14.6795 22.695 14.4395C22.695 13.9328 22.5617 13.5462 22.295 13.2795C22.0337 13.0128 21.6603 12.8795 21.175 12.8795C20.9617 12.8795 20.7643 12.9115 20.583 12.9755C20.407 13.0342 20.247 13.1168 20.103 13.2235C19.9643 13.3302 19.8443 13.4555 19.743 13.5995C19.6417 13.7435 19.567 13.9008 19.519 14.0715C19.4177 14.3382 19.287 14.5168 19.127 14.6075C18.967 14.6928 18.735 14.7115 18.431 14.6635L17.271 14.4555Z" fill="white"/>
</g>
<defs>
<filter id="filter0_d_353_238" x="2" y="0" width="37.4883" height="50.7586" filterUnits="userSpaceOnUse" color-interpolation-filters="sRGB">
<feFlood flood-opacity="0" result="BackgroundImageFix"/>
<feColorMatrix in="SourceAlpha" type="matrix" values="0 0 0 0 0 0 0 0 0 0 0 0 0 0 0 0 0 0 127 0" result="hardAlpha"/>
<feOffset dy="2"/>
<feGaussianBlur stdDeviation="2.5"/>
<feComposite in2="hardAlpha" operator="out"/>
<feColorMatrix type="matrix" values="0 0 0 0 0 0 0 0 0 0 0 0 0 0 0 0 0 0 0.05 0"/>
<feBlend mode="normal" in2="BackgroundImageFix" result="effect1_dropShadow_353_238"/>
<feBlend mode="normal" in="SourceGraphic" in2="effect1_dropShadow_353_238" result="shape"/>
</filter>
<filter id="filter1_d_353_238" x="0.791504" y="4.58301" width="39.9053" height="53.1756" filterUnits="userSpaceOnUse" color-interpolation-filters="sRGB">
<feFlood flood-opacity="0" result="BackgroundImageFix"/>
<feColorMatrix in="SourceAlpha" type="matrix" values="0 0 0 0 0 0 0 0 0 0 0 0 0 0 0 0 0 0 127 0" result="hardAlpha"/>
<feOffset dy="4"/>
<feGaussianBlur stdDeviation="5"/>
<feComposite in2="hardAlpha" operator="out"/>
<feColorMatrix type="matrix" values="0 0 0 0 0 0 0 0 0 0 0 0 0 0 0 0 0 0 0.25 0"/>
<feBlend mode="normal" in2="BackgroundImageFix" result="effect1_dropShadow_353_238"/>
<feBlend mode="normal" in="SourceGraphic" in2="effect1_dropShadow_353_238" result="shape"/>
</filter>
<linearGradient id="paint0_linear_353_238" x1="14.811" y1="7.16473" x2="25.2892" y2="40.4034" gradientUnits="userSpaceOnUse">
<stop stop-color="#E58055"/>
<stop offset="1" stop-color="#C45027"/>
</linearGradient>
<linearGradient id="paint1_linear_353_238" x1="27.8532" y1="5.36969" x2="12.6872" y2="27.6447" gradientUnits="userSpaceOnUse">
<stop offset="0.30077" stop-color="#C14D26"/>
<stop offset="0.660724" stop-color="#E89367"/>
</linearGradient>
</defs>
</svg>
